<?xml version="1.0" encoding="UTF-8"?>
<svg id="Layer_2" data-name="Layer 2" xmlns="http://www.w3.org/2000/svg" viewBox="0 0 5.24 11.83">
  <defs>
    <style>
      .cls-1 {
        fill: #00994e;
      }
    </style>
  </defs>
  <g id="halftones">
    <path class="cls-1" d="m.71,7.91c.31.44.75,1.65,1.22,1.89.07-.23-.07-.67-.1-.92-.04-.38-.08-.77-.11-1.15-.06-.68-.09-2.59-.06-3.76.02-.7.02-1.41.03-2.11,0-.39-.12-1.47.23-1.76.37-.29.41.11.43.41.04.61.04,1.22.07,1.83.05,1.28.09,2.55.15,3.83.06,1.26.11,1.51.44,2.68.22-.12.38-.7.51-.93.2-.37.4-.75.63-1.1.16-.25.42-.66.79-.52.26.09.33.49.29.72-.13.65-.77,1.38-1.07,1.97-.35.71-.7,1.42-1.02,2.14-.2.45-.57.96-1.09.57-.42-.31-.75-1.21-.99-1.66-.33-.62-.59-1.26-.9-1.89-.39-.8.05-.68.56-.24.06.08-.16-.14,0,0Z"/>
  </g>
</svg>