<?xml version="1.0" encoding="UTF-8"?>
<svg id="Layer_2" data-name="Layer 2" xmlns="http://www.w3.org/2000/svg" viewBox="0 0 807.09 262.45">
  <defs>
    <style>
      .cls-1 {
        fill: #009ee2;
      }
    </style>
  </defs>
  <g id="Layer_1-2" data-name="Layer 1">
    <path class="cls-1" d="m612.4,89.97h-36.86c-2.25,0-4.09-1.83-4.09-4.08s1.83-4.09,4.09-4.09h53.62c11.98,0,21.69-9.71,21.69-21.69s-9.71-21.69-21.69-21.69h-53.62c-26.17,0-47.46,21.29-47.46,47.46s21.29,47.46,47.46,47.46h36.86c2.25,0,4.09,1.83,4.09,4.09s-1.83,4.08-4.09,4.08h-66.88c-11.98,0-21.69,9.71-21.69,21.69s9.71,21.69,21.69,21.69h66.88c26.17,0,47.46-21.29,47.46-47.46s-21.29-47.46-47.46-47.46Z"/>
    <path class="cls-1" d="m246.73,192.05c13.99,0,27.13-3.68,38.56-10.07,3.66,6.8,10.76,11.48,19.03,11.48,11.98,0,21.69-9.71,21.69-21.69V53.79c0-11.98-9.71-21.69-21.69-21.69-8.27,0-15.37,4.68-19.03,11.48-11.42-6.39-24.56-10.07-38.56-10.07-43.71,0-79.27,35.56-79.27,79.27s35.56,79.27,79.27,79.27Zm0-115.16c19.79,0,35.9,16.1,35.9,35.9s-16.1,35.89-35.9,35.89-35.89-16.1-35.89-35.89,16.1-35.9,35.89-35.9Z"/>
    <path class="cls-1" d="m158.54,112.79c0-43.71-35.56-79.27-79.27-79.27S0,69.07,0,112.79s35.56,79.27,79.27,79.27c12.75,0,24.76-3.1,35.44-8.46-.39,5.36-.96,9.64-1.8,11.95-5.18,14.08-18.7,23.54-33.64,23.54s-28.47-9.46-33.64-23.54c-4.13-11.24-16.59-17-27.84-12.87-11.24,4.14-17,16.6-12.87,27.84,11.42,31.07,41.31,51.95,74.36,51.95s62.93-20.87,74.16-51.43c5.58-14.07,5.71-38.75,5.27-77.72-.08-7.08-.16-14.03-.16-20.52Zm-79.27,35.89c-19.79,0-35.9-16.1-35.9-35.89s16.1-35.9,35.9-35.9,35.89,16.1,35.89,35.9-16.1,35.89-35.89,35.89Z"/>
    <path class="cls-1" d="m793.54,40.01c-11.11-4.51-23.75.86-28.25,11.96l-29.5,72.84-29.5-72.83c-4.5-11.1-17.14-16.45-28.24-11.96-11.1,4.5-16.46,17.14-11.96,28.24l46.3,114.33-4.98,12.3-.25.65c-5.18,14.08-18.7,23.54-33.64,23.54-11.98,0-21.69,9.71-21.69,21.69s9.71,21.69,21.69,21.69c32.92,0,62.7-20.71,74.22-51.59l57.76-142.61c4.5-11.11-.86-23.75-11.96-28.25Z"/>
    <path class="cls-1" d="m404.89,43.38h1.06c11.98,0,21.69-9.71,21.69-21.69S417.93,0,405.95,0h-1.06c-31.93,0-57.9,25.97-57.9,57.9v113.88c0,11.98,9.71,21.69,21.69,21.69s21.69-9.71,21.69-21.69v-59.76h13.43c11.98,0,21.69-9.71,21.69-21.69s-9.71-21.69-21.69-21.69h-13.43v-10.75c0-8.01,6.52-14.52,14.52-14.52Z"/>
    <path class="cls-1" d="m496.39,43.38h1.06c11.98,0,21.69-9.71,21.69-21.69S509.43,0,497.45,0h-1.06c-31.92,0-57.9,25.97-57.9,57.9v113.88c0,11.98,9.71,21.69,21.69,21.69s21.69-9.71,21.69-21.69v-59.76h13.43c11.98,0,21.69-9.71,21.69-21.69s-9.71-21.69-21.69-21.69h-13.43v-10.75c0-8.01,6.52-14.52,14.52-14.52Z"/>
  </g>
</svg>