<?xml version="1.0" encoding="UTF-8"?>
<svg id="Layer_2" data-name="Layer 2" xmlns="http://www.w3.org/2000/svg" viewBox="0 0 334.13 126.35">
  <defs>
    <style>
      .cls-1 {
        fill: #fff;
      }

      .cls-2 {
        fill: #fff;
      }

      .cls-3 {
        fill: none;
      }

      .cls-4 {
        fill: #fff;
      }
    </style>
  </defs>
  <g id="Layer_1-2" data-name="Layer 1">
    <path class="cls-1" d="m174.25,62.81c-.43-.18-.83-.41-1.2-.69-.37-.28-.75-.64-1.15-1.1-1.62-1.87-3.32-3.85-5.08-5.93s-3.54-4.18-5.33-6.3c-1.79-2.12-3.57-4.21-5.33-6.28-1.76-2.07-3.44-4.05-5.04-5.96-.37-.37-.83-.55-1.38-.55-.49,0-.93.12-1.31.37-.38.25-.59.63-.62,1.15v25.66h-5.01v-26.03l.05-.14c.06-.95.3-1.81.71-2.58.41-.77.95-1.41,1.61-1.93.66-.52,1.39-.92,2.21-1.2.81-.28,1.63-.41,2.46-.41.98,0,1.92.19,2.83.58.9.38,1.69,1.02,2.37,1.91,3.46,4.08,6.91,8.14,10.35,12.19,3.43,4.05,6.9,8.12,10.39,12.23.15.15.36.29.62.41s.51.18.76.18c.43,0,.83-.14,1.2-.41.37-.28.6-.64.69-1.1v-25.66h5.06v26.03c-.09.95-.35,1.81-.78,2.58-.43.77-.96,1.42-1.59,1.98-.63.55-1.34.97-2.14,1.26-.8.29-1.62.44-2.48.44-.46,0-.94-.05-1.45-.16-.51-.11-.97-.28-1.4-.53Z"/>
    <path class="cls-1" d="m200.55,38.71c-.74.77-1.32,1.64-1.75,2.62-.43.98-.64,2.04-.64,3.17v.23h34.49v5.06h-34.49v.23c0,1.1.21,2.15.64,3.13.43.98,1.02,1.84,1.77,2.58s1.62,1.32,2.62,1.75c1,.43,2.05.64,3.15.64h26.3v5.06h-26.3c-1.84,0-3.56-.35-5.17-1.06s-3.01-1.66-4.21-2.85c-1.2-1.2-2.14-2.6-2.83-4.21s-1.03-3.32-1.03-5.13v-5.43c0-1.84.35-3.56,1.06-5.15.7-1.59,1.66-2.99,2.85-4.18,1.2-1.2,2.6-2.14,4.21-2.83,1.61-.69,3.32-1.04,5.13-1.04h26.3v5.01h-26.3c-1.17,0-2.24.21-3.22.64-.98.43-1.84,1.01-2.58,1.75Z"/>
    <path class="cls-2" d="m247.04,63.18h-5.01v-31.82h31.87c1.35,0,2.64.26,3.86.78,1.23.52,2.3,1.23,3.22,2.14.92.91,1.66,1.95,2.21,3.15.55,1.2.83,2.47.83,3.82s-.28,2.67-.85,3.86c-.57,1.2-1.33,2.25-2.28,3.15-.95.9-2.05,1.61-3.31,2.11-1.26.51-2.56.76-3.91.76h-26.62v12.05Zm26.72-16.97c.71,0,1.37-.13,2-.39.63-.26,1.18-.61,1.66-1.06.47-.44.87-.97,1.17-1.56s.48-1.25.51-1.95c-.03-.67-.2-1.31-.51-1.91s-.71-1.12-1.2-1.56-1.06-.8-1.7-1.06c-.64-.26-1.32-.39-2.02-.39h-26.62v9.89h26.72Z"/>
    <path class="cls-2" d="m331,46.76c.98.89,1.75,1.92,2.3,3.1.55,1.18.83,2.44.83,3.79s-.27,2.56-.8,3.72c-.54,1.17-1.26,2.18-2.18,3.04-.92.86-1.99,1.53-3.2,2.02-1.21.49-2.48.74-3.79.74h-31.27v-31.87h31.13c.95,0,1.89.12,2.83.34.93.23,1.81.57,2.62,1.01.81.45,1.55,1,2.21,1.66.66.66,1.19,1.42,1.59,2.28.58,1.17.87,2.38.87,3.63s-.27,2.42-.8,3.59c-.54,1.17-1.31,2.15-2.32,2.94Zm-33.11-2.62h26.3c.58,0,1.17-.09,1.75-.28.58-.18,1.11-.44,1.59-.78.47-.34.86-.74,1.15-1.22.29-.48.44-1.02.44-1.63s-.15-1.16-.46-1.63c-.31-.47-.7-.88-1.17-1.22-.48-.34-1.02-.6-1.63-.78s-1.23-.28-1.84-.28h-26.12v7.82Zm30.85,11.22c.25-.49.37-1.04.37-1.66,0-.58-.13-1.15-.39-1.7s-.62-1.03-1.08-1.45-.98-.74-1.56-.99c-.58-.24-1.2-.37-1.84-.37h-26.35v8.92h26.35c.95,0,1.85-.25,2.69-.76.84-.51,1.45-1.17,1.82-2Z"/>
    <g>
      <path class="cls-4" d="m143.81,81.05h-.96v-8.6h9.04c.36,0,.7.07,1.02.21.33.14.61.33.86.57.25.24.45.52.6.84.15.32.22.66.22,1.01s-.08.71-.23,1.03c-.15.32-.36.6-.61.84-.25.24-.55.42-.88.56-.33.14-.69.21-1.05.21h-8.02v3.34Zm8.05-4.28c.24,0,.47-.04.68-.13s.4-.21.57-.36c.16-.15.29-.33.39-.54.1-.21.15-.43.16-.66,0-.23-.06-.45-.16-.66-.1-.21-.23-.39-.4-.54-.17-.15-.36-.27-.58-.36s-.45-.13-.69-.13h-8.02v3.38h8.05Z"/>
      <path class="cls-4" d="m167.55,76.94c-.41.4-.92.64-1.51.73l2.52,3.38h-1.18l-2.5-3.34h-7.29v3.34h-.94v-8.6h8.97c.28,0,.55.04.81.11s.5.18.71.32c.37.24.67.55.9.94s.34.81.34,1.26c0,.36-.07.71-.22,1.02-.15.32-.35.6-.61.84Zm-9.96-.17h8.07c.23,0,.45-.04.67-.13s.4-.21.57-.36c.16-.15.29-.33.39-.53.1-.2.15-.42.15-.66s-.05-.46-.15-.67c-.1-.21-.23-.38-.4-.53-.17-.15-.36-.27-.58-.35s-.45-.13-.69-.13h-8.02v3.38Z"/>
      <path class="cls-4" d="m174.13,81.05c-.49,0-.95-.09-1.37-.28-.43-.19-.8-.44-1.12-.76-.32-.32-.57-.69-.76-1.12-.19-.43-.28-.88-.28-1.37v-1.55c0-.48.09-.93.28-1.37.19-.43.44-.81.76-1.12s.69-.57,1.12-.76.88-.28,1.37-.28h6.38c.49,0,.95.09,1.38.28.43.19.8.44,1.12.76.32.32.57.69.76,1.12.19.43.28.89.28,1.37v1.55c0,.49-.09.95-.28,1.37-.19.43-.44.8-.76,1.12-.32.32-.69.57-1.12.76-.43.19-.89.28-1.38.28h-6.38Zm-2.58-5.08v1.55c0,.36.07.69.2,1,.14.31.32.58.56.82s.51.42.82.56c.31.14.64.21,1,.21h6.38c.36,0,.69-.07,1.01-.21.31-.14.59-.32.83-.56.24-.24.42-.51.56-.82.14-.31.21-.64.21-1v-1.55c0-.36-.07-.69-.21-1s-.32-.58-.56-.82c-.24-.24-.51-.42-.83-.56s-.65-.21-1.01-.21h-6.38c-.36,0-.69.07-1,.21-.31.14-.58.32-.82.56-.24.24-.42.51-.56.82-.14.31-.2.64-.2,1Z"/>
      <path class="cls-4" d="m187.05,81.05h-.96v-8.6h9.04c.36,0,.7.07,1.02.21.33.14.61.33.86.57.25.24.45.52.6.84.15.32.22.66.22,1.01s-.08.71-.23,1.03c-.15.32-.36.6-.61.84-.25.24-.55.42-.88.56-.33.14-.69.21-1.05.21h-8.02v3.34Zm8.05-4.28c.24,0,.47-.04.68-.13s.4-.21.57-.36c.16-.15.29-.33.39-.54.1-.21.15-.43.16-.66,0-.23-.06-.45-.16-.66-.1-.21-.23-.39-.4-.54-.17-.15-.36-.27-.58-.36s-.45-.13-.69-.13h-8.02v3.38h8.05Z"/>
      <path class="cls-4" d="m201.59,74.15c-.24.24-.43.52-.56.83s-.2.64-.2,1v.31h9.85v.94h-9.85v.32c0,.35.07.68.2.99.14.31.32.58.56.81.24.23.51.42.83.55.31.14.65.21.99.21h7.26v.94h-7.26c-.49,0-.95-.09-1.37-.28-.43-.19-.8-.44-1.12-.76-.32-.32-.57-.7-.76-1.12-.19-.43-.28-.88-.28-1.36v-1.55c0-.49.09-.95.28-1.37.19-.43.44-.8.76-1.12.32-.32.7-.57,1.12-.76s.88-.28,1.36-.28h7.26v.94h-7.26c-.36,0-.69.07-1,.2-.31.13-.59.32-.83.56Z"/>
      <path class="cls-4" d="m223.98,76.94c-.41.4-.92.64-1.51.73l2.52,3.38h-1.18l-2.5-3.34h-7.29v3.34h-.94v-8.6h8.96c.28,0,.55.04.81.11s.5.18.71.32c.37.24.67.55.9.94s.34.81.34,1.26c0,.36-.07.71-.22,1.02-.15.32-.35.6-.61.84Zm-9.96-.17h8.07c.23,0,.45-.04.67-.13s.4-.21.57-.36c.16-.15.29-.33.39-.53.1-.2.15-.42.15-.66s-.05-.46-.15-.67c-.1-.21-.23-.38-.4-.53-.17-.15-.36-.27-.58-.35s-.45-.13-.69-.13h-8.02v3.38Z"/>
      <path class="cls-4" d="m237.78,73.39h-4.9v7.66h-.94v-7.66h-4.9v-.94h10.75v.94Z"/>
      <path class="cls-4" d="m244.69,81.05v-2.73h-1.32c-.5,0-.96-.09-1.38-.28s-.8-.44-1.11-.75c-.32-.32-.58-.7-.76-1.12-.19-.43-.28-.88-.28-1.37v-2.35h.94v2.35c0,.35.07.68.2.99.14.31.32.59.55.83.23.24.5.42.81.56s.64.21,1,.21h3.54c.35,0,.68-.07.99-.21.32-.14.59-.32.83-.55.24-.23.42-.5.56-.81.14-.31.2-.64.2-.99v-2.37h.94v2.35c0,.49-.09.95-.28,1.37-.19.43-.44.8-.76,1.12-.31.31-.69.56-1.11.75s-.88.28-1.37.28h-1.25v2.73h-.94Z"/>
      <path class="cls-4" d="m267.35,76.61c.31.22.57.51.76.86.19.35.29.72.29,1.12,0,.35-.07.67-.21.97-.14.3-.33.56-.57.78-.24.22-.52.4-.83.53s-.65.19-.99.19h-8.68v-8.6h8.64c.25,0,.5.03.74.09.24.06.47.15.68.27.21.12.4.26.58.43s.31.37.42.59c.15.3.22.6.22.92s-.07.62-.21.92-.33.55-.59.76l-.26.19Zm-9.29-.5h7.75c.19,0,.38-.03.58-.09.2-.06.38-.15.53-.27.16-.12.29-.26.38-.43.1-.17.15-.35.15-.56s-.05-.41-.15-.58c-.1-.17-.23-.31-.39-.43-.16-.12-.34-.21-.55-.27-.2-.06-.41-.09-.62-.09h-7.7v2.72Zm9.27,3.05c.08-.17.12-.36.12-.57s-.04-.4-.13-.58c-.09-.18-.21-.34-.35-.48-.15-.14-.32-.25-.52-.34-.2-.08-.41-.12-.63-.12h-7.76v3.04h7.76c.31,0,.61-.09.9-.26.28-.17.49-.4.61-.68Z"/>
      <path class="cls-4" d="m271.88,80.02c-.32-.32-.58-.7-.76-1.12-.19-.43-.28-.88-.28-1.37v-5.08h.94v5.08c0,.35.07.68.2.99.14.32.32.59.55.83.23.24.5.42.81.56.31.14.64.21,1,.21h3.54c.35,0,.68-.07.99-.21.32-.14.59-.32.83-.55.24-.23.42-.5.56-.81.14-.31.2-.64.2-.99v-5.1h.94v5.08c0,.49-.09.95-.28,1.37-.19.43-.44.8-.76,1.12-.31.32-.69.56-1.11.75-.43.19-.88.28-1.37.28h-3.51c-.5,0-.96-.09-1.38-.28-.43-.19-.8-.44-1.11-.75Z"/>
      <path class="cls-4" d="m288.63,81.05v-2.73h-1.32c-.5,0-.96-.09-1.38-.28s-.8-.44-1.11-.75c-.32-.32-.58-.7-.76-1.12-.19-.43-.28-.88-.28-1.37v-2.35h.94v2.35c0,.35.07.68.2.99.14.31.32.59.55.83.23.24.5.42.81.56s.64.21,1,.21h3.54c.35,0,.68-.07.99-.21.32-.14.59-.32.83-.55.24-.23.42-.5.56-.81.14-.31.2-.64.2-.99v-2.37h.94v2.35c0,.49-.09.95-.28,1.37-.19.43-.44.8-.76,1.12-.31.31-.69.56-1.11.75s-.88.28-1.37.28h-1.25v2.73h-.94Z"/>
      <path class="cls-4" d="m298.1,74.15c-.24.24-.43.52-.56.83s-.2.64-.2,1v.31h9.85v.94h-9.85v.32c0,.35.07.68.2.99.14.31.32.58.56.81.24.23.51.42.83.55.31.14.65.21.99.21h7.26v.94h-7.26c-.49,0-.95-.09-1.37-.28-.43-.19-.8-.44-1.12-.76-.32-.32-.57-.7-.76-1.12-.19-.43-.28-.88-.28-1.36v-1.55c0-.49.09-.95.28-1.37.19-.43.44-.8.76-1.12.32-.32.7-.57,1.12-.76s.88-.28,1.36-.28h7.26v.94h-7.26c-.36,0-.69.07-1,.2-.31.13-.59.32-.83.56Z"/>
      <path class="cls-4" d="m320.49,76.94c-.41.4-.92.64-1.51.73l2.52,3.38h-1.18l-2.5-3.34h-7.29v3.34h-.94v-8.6h8.96c.28,0,.55.04.81.11s.5.18.71.32c.37.24.67.55.9.94s.34.81.34,1.26c0,.36-.07.71-.22,1.02-.15.32-.35.6-.61.84Zm-9.96-.17h8.07c.23,0,.45-.04.67-.13s.4-.21.57-.36c.16-.15.29-.33.39-.53.1-.2.15-.42.15-.66s-.05-.46-.15-.67c-.1-.21-.23-.38-.4-.53-.17-.15-.36-.27-.58-.35s-.45-.13-.69-.13h-8.02v3.38Z"/>
      <path class="cls-4" d="m331.75,81.05h-8.21v-.94h8.21c.2,0,.38-.04.56-.11.17-.07.33-.18.46-.31s.24-.28.31-.46.11-.36.11-.56-.04-.39-.11-.56-.18-.33-.3-.47-.28-.24-.46-.31c-.18-.07-.37-.11-.56-.11h-6.29c-.32,0-.63-.06-.92-.19-.29-.12-.54-.29-.76-.51s-.39-.47-.52-.76c-.12-.29-.19-.6-.19-.93s.06-.64.19-.94.29-.55.51-.76.47-.39.76-.52c.29-.13.6-.19.93-.19h8.21v.94h-8.21c-.21,0-.4.04-.56.12-.17.08-.32.18-.45.31s-.23.28-.3.45c-.07.17-.12.36-.12.56.03.41.18.76.45,1.04.26.28.6.42.99.42h6.29c.33,0,.64.06.93.19.29.12.54.29.76.51s.38.47.51.76.19.6.19.93-.06.64-.19.93-.29.54-.51.76-.47.39-.76.52c-.29.12-.6.19-.93.19Z"/>
    </g>
    <g>
      <rect class="cls-1" x="16.06" y="29.29" width="33.53" height="50.47"/>
      <rect class="cls-1" x="53.68" y="15" width="33.53" height="64.76"/>
      <rect class="cls-2" x="91.06" width="33.53" height="79.76"/>
      <path class="cls-4" d="m41.12,103.06H0c1.06-.88,16.06-23.29,16.06-23.29h33.53l-8.47,23.29Z"/>
      <polygon class="cls-4" points="98.15 117.35 41.5 117.35 53.68 79.76 87.21 79.76 98.15 117.35"/>
      <polygon class="cls-4" points="106.82 126.35 157.59 126.35 124.59 79.76 91.06 79.76 106.82 126.35"/>
    </g>
    <rect class="cls-3" width="334.13" height="126.35"/>
  </g>
</svg>