<?xml version="1.0" encoding="UTF-8"?>
<svg id="Layer_2" data-name="Layer 2" xmlns="http://www.w3.org/2000/svg" viewBox="0 0 230.79 52.61">
  <defs>
    <style>
      .cls-1 {
        fill: #fff;
      }
    </style>
  </defs>
  <g id="Layer_1-2" data-name="Layer 1">
    <path class="cls-1" d="m45.68,1.97c1.02,1.31,1.66,2.85,1.92,4.61.25,1.76.38,4.02.38,6.77v26.68c0,.77.24,1.49.72,2.16s1.07,1.01,1.78,1.01c.96,0,1.81-.3,2.54-.91.73-.61,1.52-1.42,2.35-2.45l1.63,1.82c-1.15,2.24-2.73,4.11-4.75,5.61-2.02,1.5-4.17,2.25-6.48,2.25-3.07,0-5.37-.88-6.91-2.64-1.54-1.76-2.3-4.24-2.3-7.44V14.3c0-.89-.1-1.66-.29-2.3-.19-.64-.64-.96-1.34-.96-2.18,0-4.38,2.32-6.62,6.96-2.24,4.64-4.13,9.96-5.66,15.98-1.54,6.01-2.3,10.56-2.3,13.63l-11.23,2.49V9.79c0-.96-.23-1.76-.67-2.4-.45-.64-1.09-.96-1.92-.96-.9,0-1.78.37-2.64,1.1-.86.74-1.58,1.58-2.16,2.54l-1.73-1.92C.96,5.92,2.46,4,4.51,2.4,6.56.8,8.76,0,11.13,0c3.2,0,5.53.88,7.01,2.64,1.47,1.76,2.21,4.21,2.21,7.34v18.52h.38c1.73-7.1,4.3-13.63,7.73-19.58C31.88,2.98,35.99,0,40.79,0c2.24,0,3.87.66,4.89,1.97Z"/>
    <path class="cls-1" d="m90.2,2.83c2.5,1.89,3.74,4.62,3.74,8.21,0,2.88-1.55,6.09-4.65,9.64-3.1,3.55-6.78,6.85-11.04,9.88-4.26,3.04-7.89,5.23-10.89,6.57,2.69,4.29,6.62,6.43,11.8,6.43,2.88,0,5.77-.82,8.68-2.45,2.91-1.63,5.39-3.79,7.44-6.48l1.92,2.3c-3.33,4.16-6.83,7.37-10.51,9.64-3.68,2.27-8.05,3.41-13.1,3.41-4.1,0-7.76-.93-10.99-2.78-3.23-1.85-5.76-4.4-7.58-7.63-1.82-3.23-2.74-6.86-2.74-10.89,0-4.86,1.33-9.52,3.98-13.96,2.65-4.45,6.19-8.01,10.6-10.7,4.41-2.69,9.08-4.03,14.01-4.03,3.71,0,6.81.95,9.31,2.83Zm-21.3,6.05c-1.92,1.76-3.42,4.02-4.51,6.77-1.09,2.75-1.63,5.6-1.63,8.54,0,3.84.83,7.13,2.5,9.88,2.37-1.34,4.88-3.21,7.53-5.61,2.65-2.4,4.88-4.97,6.67-7.73,1.79-2.75,2.69-5.25,2.69-7.49s-.59-3.97-1.78-5.18c-1.18-1.21-2.83-1.82-4.94-1.82-2.43,0-4.61.88-6.53,2.64Z"/>
    <g>
      <path class="cls-1" d="m104.32,29.99v-10.35h1.4l.16,1.55h.14c.28-.42.59-.76.93-1.02s.74-.46,1.16-.58c.43-.12.88-.19,1.37-.19.66,0,1.23.11,1.72.33.49.22.88.58,1.16,1.08.28.5.42,1.17.42,2.03v7.14h-1.73v-6.91c0-.43-.06-.79-.17-1.06-.11-.28-.26-.49-.45-.65s-.42-.27-.69-.33c-.27-.07-.57-.1-.9-.1-.49,0-.94.12-1.38.35-.43.24-.78.58-1.03,1.02-.26.45-.38.98-.38,1.59v6.08h-1.73Z"/>
      <path class="cls-1" d="m119.65,30.22c-1.05,0-1.93-.19-2.65-.58-.72-.39-1.26-.98-1.63-1.78s-.56-1.82-.56-3.05.19-2.27.56-3.06.92-1.38,1.63-1.77c.71-.39,1.6-.58,2.65-.58s1.93.19,2.65.58c.71.39,1.26.98,1.62,1.77.37.79.55,1.81.55,3.06s-.18,2.25-.55,3.05c-.37.8-.91,1.39-1.62,1.78s-1.6.58-2.65.58Zm0-1.46c.67,0,1.23-.13,1.67-.39.45-.26.78-.67,1.01-1.23s.34-1.26.34-2.12v-.43c0-.87-.12-1.57-.34-2.12-.23-.55-.57-.96-1.01-1.22-.45-.26-1-.39-1.67-.39s-1.23.13-1.68.39c-.45.26-.79.67-1.01,1.22-.22.55-.33,1.26-.33,2.12v.43c0,.85.11,1.56.33,2.12.22.56.56.97,1.01,1.23s1.01.39,1.68.39Z"/>
      <path class="cls-1" d="m126.62,29.99v-10.35h1.4l.16,1.71h.14c.11-.33.25-.64.43-.93.18-.29.43-.54.75-.73.32-.19.7-.29,1.16-.29.2,0,.38.02.54.05.16.03.29.07.36.11v1.59h-.65c-.45,0-.83.08-1.15.23-.32.15-.59.36-.8.64s-.36.6-.46.98c-.1.38-.15.79-.15,1.22v5.77h-1.73Z"/>
      <path class="cls-1" d="m135.57,30.22c-.54,0-.96-.1-1.26-.31-.3-.2-.52-.47-.65-.81-.13-.33-.2-.69-.2-1.07v-6.95h-1.34v-1.46h1.38l.31-2.89h1.38v2.89h1.95v1.46h-1.95v6.69c0,.33.06.57.18.74s.34.25.67.25h1.1v1.14c-.13.07-.29.12-.47.16-.18.04-.37.08-.56.11-.19.03-.37.05-.54.05Z"/>
      <path class="cls-1" d="m138.99,29.99v-14.23h1.73v5.18h.14c.26-.35.56-.64.88-.87.33-.22.69-.39,1.09-.5.4-.11.84-.17,1.31-.17.66,0,1.23.11,1.72.33.49.22.88.58,1.16,1.08.28.5.42,1.17.42,2.03v7.14h-1.73v-6.91c0-.43-.06-.79-.17-1.06-.11-.28-.26-.49-.45-.65s-.42-.27-.69-.33c-.27-.07-.57-.1-.9-.1-.49,0-.94.12-1.38.34-.43.23-.78.56-1.03,1s-.38.98-.38,1.62v6.08h-1.73Z"/>
      <path class="cls-1" d="m158.32,30.22c-1.02,0-1.89-.19-2.59-.58s-1.23-.98-1.59-1.78c-.36-.8-.54-1.82-.54-3.05s.18-2.27.54-3.06c.36-.79.9-1.38,1.6-1.77.71-.39,1.59-.58,2.66-.58.97,0,1.78.19,2.44.56s1.15.93,1.49,1.67c.33.74.5,1.67.5,2.78v.83h-7.44c.03.83.15,1.5.36,2.04.22.53.54.92.97,1.16.43.24.98.36,1.63.36.45,0,.84-.06,1.17-.17.33-.11.62-.27.85-.48s.4-.46.52-.75c.12-.29.18-.6.2-.94h1.69c-.01.55-.12,1.06-.31,1.53-.2.47-.49.86-.87,1.19s-.85.58-1.4.77c-.55.18-1.18.28-1.89.28Zm-2.89-6.28h5.61c0-.58-.07-1.06-.2-1.46s-.32-.71-.56-.96c-.24-.25-.53-.43-.85-.54s-.69-.17-1.09-.17c-.6,0-1.12.11-1.54.33-.42.22-.74.56-.96,1.02-.22.46-.36,1.05-.41,1.77Z"/>
      <path class="cls-1" d="m167.57,30.22c-.38,0-.76-.05-1.14-.14-.38-.09-.74-.24-1.06-.45-.33-.21-.59-.5-.79-.88-.2-.37-.29-.84-.29-1.41,0-.71.17-1.29.51-1.75.34-.46.82-.82,1.43-1.07s1.33-.43,2.17-.53c.84-.1,1.75-.15,2.73-.15v-1.18c0-.38-.07-.71-.2-.98-.13-.28-.36-.49-.7-.64-.33-.15-.81-.23-1.43-.23s-1.06.08-1.41.23c-.35.15-.59.34-.73.58s-.21.5-.21.79v.29h-1.67c-.01-.07-.02-.13-.02-.2v-.24c0-.63.17-1.16.52-1.58.35-.43.84-.75,1.47-.96.63-.22,1.35-.33,2.17-.33.87,0,1.59.12,2.17.37s1.02.6,1.32,1.06c.3.46.44,1.01.44,1.65v5.61c0,.25.06.42.18.52.12.1.26.15.43.15h.77v1.14c-.18.08-.39.15-.61.21-.22.06-.48.09-.77.09-.34,0-.62-.07-.85-.21-.22-.14-.39-.33-.51-.57-.12-.24-.2-.51-.24-.82h-.14c-.24.33-.53.61-.89.86-.36.24-.76.43-1.21.56-.45.13-.93.2-1.46.2Zm.43-1.46c.42,0,.82-.07,1.19-.2.37-.13.71-.32.99-.56.29-.24.52-.53.69-.88.17-.34.25-.71.25-1.12v-.87c-1.06,0-1.97.06-2.71.18-.75.12-1.32.33-1.72.63-.4.3-.6.73-.6,1.28,0,.35.08.64.24.87.16.22.38.39.67.5.29.11.62.17,1,.17Z"/>
      <path class="cls-1" d="m179.31,30.22c-.71,0-1.33-.07-1.87-.22-.54-.14-.98-.35-1.34-.63-.35-.28-.62-.6-.81-.98s-.28-.81-.28-1.3v-.19c0-.06,0-.11.02-.15h1.71c-.01.05-.02.1-.02.14v.12c.01.46.13.82.36,1.08.23.26.55.45.95.55.41.1.86.16,1.36.16.43,0,.83-.06,1.2-.17s.66-.28.88-.51c.22-.23.32-.52.32-.88,0-.43-.14-.76-.42-.99-.28-.23-.65-.41-1.11-.54-.46-.13-.94-.27-1.44-.41-.42-.12-.84-.25-1.26-.39-.42-.14-.8-.32-1.13-.53-.33-.21-.6-.48-.81-.82-.2-.33-.3-.76-.3-1.27,0-.46.09-.87.29-1.22.19-.35.46-.66.82-.91s.78-.44,1.29-.56c.5-.12,1.07-.19,1.68-.19.66,0,1.23.07,1.72.22s.9.35,1.23.61c.33.26.57.56.73.89.16.33.24.69.24,1.07v.23c0,.07,0,.13-.02.17h-1.69v-.22c0-.26-.07-.51-.21-.76-.14-.24-.37-.44-.71-.59-.33-.15-.8-.23-1.39-.23-.38,0-.71.03-.98.09-.28.06-.51.15-.69.28-.18.12-.32.27-.41.43s-.14.35-.14.56c0,.34.11.6.33.79.22.18.52.33.89.45.37.12.78.25,1.21.39.46.13.93.27,1.41.4.48.14.92.31,1.32.52.4.21.72.5.96.86.24.36.36.84.36,1.43,0,.55-.11,1.03-.32,1.44-.21.41-.51.74-.9,1-.39.26-.84.46-1.36.58-.52.12-1.09.19-1.7.19Z"/>
      <path class="cls-1" d="m188.15,30.22c-.54,0-.96-.1-1.26-.31-.3-.2-.52-.47-.65-.81-.13-.33-.2-.69-.2-1.07v-6.95h-1.34v-1.46h1.38l.31-2.89h1.38v2.89h1.95v1.46h-1.95v6.69c0,.33.06.57.18.74s.34.25.67.25h1.1v1.14c-.13.07-.29.12-.47.16-.18.04-.37.08-.56.11-.19.03-.37.05-.54.05Z"/>
      <path class="cls-1" d="m104.4,52.43v-13.75h.69l.14,1.57h.14c.38-.62.85-1.07,1.4-1.37.55-.29,1.18-.44,1.89-.44.88,0,1.62.19,2.22.57.6.38,1.07.98,1.39,1.79s.48,1.88.48,3.19c0,1.19-.16,2.18-.49,2.96-.33.78-.8,1.36-1.41,1.74-.61.38-1.34.57-2.19.57-.39,0-.79-.05-1.18-.16-.39-.11-.76-.28-1.1-.52-.34-.24-.64-.57-.89-.97h-.14v4.82h-.94Zm4.11-4.01c.7,0,1.28-.14,1.76-.43.48-.29.84-.75,1.09-1.38.25-.63.37-1.45.37-2.46v-.59c0-1.1-.14-1.96-.41-2.58-.28-.62-.65-1.05-1.11-1.31-.47-.25-.99-.38-1.56-.38-.77,0-1.41.17-1.9.5-.49.33-.85.83-1.07,1.49-.22.66-.33,1.46-.33,2.4v.39c0,.96.1,1.73.31,2.3.2.58.46,1.01.79,1.31.32.29.67.49,1.03.59s.71.15,1.04.15Z"/>
      <path class="cls-1" d="m114.97,49.02v-10.35h.71l.1,1.79h.12c.08-.32.21-.63.38-.94.18-.31.43-.57.76-.78.33-.21.74-.31,1.24-.31.18,0,.35.01.49.04.14.03.25.05.31.08v.83h-.55c-.49,0-.9.1-1.23.3-.33.2-.6.46-.81.79-.2.33-.35.69-.44,1.09s-.14.8-.14,1.21v6.26h-.94Z"/>
      <path class="cls-1" d="m124.43,49.26c-.94,0-1.75-.19-2.42-.58s-1.18-.98-1.54-1.78-.53-1.82-.53-3.05.18-2.27.53-3.06.87-1.38,1.54-1.77c.67-.39,1.48-.58,2.42-.58s1.77.19,2.43.58c.66.39,1.17.98,1.53,1.77.35.79.53,1.81.53,3.06s-.18,2.25-.53,3.05c-.35.8-.86,1.39-1.53,1.78-.66.39-1.47.58-2.43.58Zm0-.85c.72,0,1.34-.14,1.86-.43.52-.29.92-.75,1.2-1.38.28-.63.42-1.45.42-2.46v-.59c0-1.02-.14-1.85-.42-2.47-.28-.62-.68-1.08-1.2-1.37-.52-.29-1.14-.43-1.86-.43s-1.34.14-1.86.43-.92.74-1.2,1.37-.42,1.45-.42,2.47v.59c0,1.01.14,1.83.42,2.46.28.63.68,1.09,1.2,1.38.52.29,1.14.43,1.86.43Z"/>
      <path class="cls-1" d="m131.14,52.43v-13.75h.69l.14,1.57h.14c.38-.62.85-1.07,1.4-1.37.55-.29,1.18-.44,1.89-.44.88,0,1.62.19,2.22.57.6.38,1.07.98,1.39,1.79s.48,1.88.48,3.19c0,1.19-.16,2.18-.49,2.96-.33.78-.8,1.36-1.41,1.74-.61.38-1.34.57-2.19.57-.39,0-.79-.05-1.18-.16-.39-.11-.76-.28-1.1-.52-.34-.24-.64-.57-.89-.97h-.14v4.82h-.94Zm4.11-4.01c.7,0,1.28-.14,1.76-.43.48-.29.84-.75,1.09-1.38.25-.63.37-1.45.37-2.46v-.59c0-1.1-.14-1.96-.41-2.58-.28-.62-.65-1.05-1.11-1.31-.47-.25-.99-.38-1.56-.38-.77,0-1.41.17-1.9.5-.49.33-.85.83-1.07,1.49-.22.66-.33,1.46-.33,2.4v.39c0,.96.1,1.73.31,2.3.2.58.46,1.01.79,1.31.32.29.67.49,1.03.59s.71.15,1.04.15Z"/>
      <path class="cls-1" d="m145.49,49.26c-.93,0-1.73-.19-2.39-.58-.66-.39-1.17-.98-1.52-1.78s-.52-1.82-.52-3.05.17-2.27.52-3.06.86-1.38,1.54-1.77c.68-.39,1.52-.58,2.52-.58.94,0,1.73.19,2.37.57.64.38,1.12.92,1.45,1.62s.49,1.53.49,2.49v.98h-7.89c0,1.05.14,1.89.42,2.53.28.64.68,1.09,1.2,1.37s1.14.41,1.86.41c.6,0,1.12-.08,1.54-.24.42-.16.76-.37,1.03-.63.27-.26.47-.56.61-.91s.21-.69.23-1.04h.91c-.01.45-.1.89-.27,1.32s-.42.83-.76,1.18c-.34.35-.79.64-1.34.85-.55.21-1.22.32-2.01.32Zm-3.42-6h6.91c0-.75-.09-1.37-.26-1.88-.17-.5-.41-.91-.72-1.22-.31-.31-.67-.53-1.08-.67s-.87-.21-1.37-.21c-.72,0-1.33.14-1.84.42s-.9.71-1.17,1.3-.43,1.33-.47,2.25Z"/>
      <path class="cls-1" d="m152.18,49.02v-10.35h.71l.1,1.79h.12c.08-.32.21-.63.38-.94.18-.31.43-.57.76-.78.33-.21.74-.31,1.24-.31.18,0,.35.01.49.04.14.03.25.05.31.08v.83h-.55c-.49,0-.9.1-1.23.3-.33.2-.6.46-.81.79-.2.33-.35.69-.44,1.09s-.14.8-.14,1.21v6.26h-.94Z"/>
      <path class="cls-1" d="m160.07,49.24c-.41,0-.73-.07-.96-.2-.24-.13-.4-.32-.5-.58-.1-.26-.15-.55-.15-.9v-8.05h-1.46v-.85h1.46l.2-2.87h.75v2.87h2.11v.85h-2.11v7.77c0,.39.04.68.13.86.08.18.31.27.68.27h1.3v.55c-.13.07-.28.12-.45.16-.17.04-.34.07-.51.09-.17.02-.33.03-.47.03Z"/>
      <path class="cls-1" d="m163.79,52.61c-.13,0-.27,0-.4-.02-.14-.01-.28-.03-.42-.04v-.75h.61c.37,0,.72-.05,1.05-.16.33-.11.65-.35.95-.75s.59-1.02.87-1.87l-4-10.35h1l2.2,5.77c.1.28.23.61.37.99.14.39.29.78.44,1.18.15.4.28.75.38,1.05h.12c.07-.22.14-.48.24-.76s.19-.57.29-.88.19-.59.29-.86c.09-.27.17-.51.24-.72l1.97-5.79h.94l-3.58,10.35c-.2.58-.4,1.09-.62,1.54-.22.45-.46.82-.72,1.12-.26.3-.57.53-.94.69-.36.16-.79.24-1.29.24Z"/>
      <path class="cls-1" d="m181.38,49.26c-.72,0-1.35-.15-1.9-.44-.54-.29-1.01-.75-1.39-1.37h-.14l-.14,1.57h-.69v-14.23h.94v5.29h.14c.25-.42.54-.75.89-.98s.71-.41,1.1-.51c.39-.1.79-.16,1.18-.16.85,0,1.58.19,2.19.57.61.38,1.08.96,1.41,1.73.33.77.49,1.76.49,2.97,0,1.31-.16,2.38-.48,3.19s-.78,1.41-1.39,1.79c-.6.38-1.34.57-2.22.57Zm0-.85c.58,0,1.1-.13,1.56-.38s.84-.69,1.11-1.32c.28-.62.41-1.48.41-2.57v-.59c0-1.02-.12-1.85-.37-2.47s-.61-1.08-1.09-1.37c-.48-.29-1.07-.43-1.76-.43-.33,0-.68.05-1.04.15-.37.1-.71.29-1.03.59-.32.29-.58.73-.79,1.31-.2.58-.31,1.34-.31,2.3v.39c0,.94.11,1.74.33,2.39.22.65.58,1.14,1.07,1.49.49.34,1.12.51,1.9.51Z"/>
      <path class="cls-1" d="m190.83,49.26c-.98,0-1.77-.24-2.36-.72-.59-.48-.89-1.32-.89-2.53v-7.34h.94v7.34c0,.5.07.91.2,1.22.13.32.31.56.54.73s.5.29.81.35.64.1.99.1c.56,0,1.1-.14,1.62-.41s.94-.68,1.28-1.22c.33-.54.5-1.19.5-1.95v-6.16h.94v10.35h-.69l-.12-1.75h-.14c-.32.54-.66.95-1.04,1.24-.38.29-.79.49-1.23.59-.44.1-.89.16-1.37.16Z"/>
      <path class="cls-1" d="m198.62,52.61c-.13,0-.27,0-.4-.02-.14-.01-.28-.03-.42-.04v-.75h.61c.37,0,.72-.05,1.05-.16.33-.11.65-.35.95-.75s.59-1.02.87-1.87l-4-10.35h1l2.2,5.77c.1.28.23.61.37.99.14.39.29.78.44,1.18.15.4.28.75.38,1.05h.12c.07-.22.14-.48.24-.76s.19-.57.29-.88.19-.59.29-.86c.09-.27.17-.51.24-.72l1.97-5.79h.94l-3.58,10.35c-.2.58-.4,1.09-.62,1.54-.22.45-.46.82-.72,1.12-.26.3-.57.53-.94.69-.36.16-.79.24-1.29.24Z"/>
      <path class="cls-1" d="m211.21,49.26c-.93,0-1.73-.19-2.39-.58-.66-.39-1.17-.98-1.52-1.78s-.52-1.82-.52-3.05.17-2.27.52-3.06.86-1.38,1.54-1.77c.68-.39,1.52-.58,2.52-.58.94,0,1.73.19,2.37.57.64.38,1.12.92,1.45,1.62s.49,1.53.49,2.49v.98h-7.89c0,1.05.14,1.89.42,2.53.28.64.68,1.09,1.2,1.37s1.14.41,1.86.41c.6,0,1.12-.08,1.54-.24.42-.16.76-.37,1.03-.63.27-.26.47-.56.61-.91s.21-.69.23-1.04h.91c-.01.45-.1.89-.27,1.32s-.42.83-.76,1.18c-.34.35-.79.64-1.34.85-.55.21-1.22.32-2.01.32Zm-3.42-6h6.91c0-.75-.09-1.37-.26-1.88-.17-.5-.41-.91-.72-1.22-.31-.31-.67-.53-1.08-.67s-.87-.21-1.37-.21c-.72,0-1.33.14-1.84.42s-.9.71-1.17,1.3-.43,1.33-.47,2.25Z"/>
      <path class="cls-1" d="m217.9,49.02v-10.35h.71l.1,1.79h.12c.08-.32.21-.63.38-.94.18-.31.43-.57.76-.78.33-.21.74-.31,1.24-.31.18,0,.35.01.49.04.14.03.25.05.31.08v.83h-.55c-.49,0-.9.1-1.23.3-.33.2-.6.46-.81.79-.2.33-.35.69-.44,1.09s-.14.8-.14,1.21v6.26h-.94Z"/>
      <path class="cls-1" d="m226.88,49.26c-.66,0-1.24-.06-1.74-.19-.51-.12-.92-.31-1.26-.57-.33-.26-.59-.57-.76-.95-.17-.38-.26-.83-.26-1.34v-.18c0-.07,0-.12.02-.18h.94c-.01.08-.02.14-.02.2v.16c0,.58.13,1.03.38,1.35.25.32.62.54,1.1.67.48.12,1.04.19,1.68.19.55,0,1.04-.08,1.47-.25.43-.16.76-.4,1-.71.24-.31.36-.69.36-1.13,0-.55-.16-.97-.47-1.25-.32-.28-.72-.5-1.21-.65-.49-.15-1-.3-1.53-.46-.41-.12-.81-.25-1.21-.38-.4-.14-.76-.31-1.08-.51-.32-.2-.58-.46-.77-.78-.19-.32-.29-.71-.29-1.2,0-.39.08-.75.24-1.08s.39-.61.7-.85c.31-.24.69-.42,1.15-.54.46-.12.99-.19,1.59-.19.72,0,1.32.08,1.79.25.47.16.84.39,1.11.67.27.28.46.59.57.92s.17.66.17,1v.14c0,.05,0,.11-.02.18h-.94v-.31c0-.28-.06-.57-.19-.88-.12-.31-.38-.57-.77-.79-.39-.22-.98-.32-1.78-.32-.45,0-.83.04-1.16.12-.33.08-.6.19-.83.34-.22.15-.39.34-.5.56-.11.22-.17.49-.17.79,0,.45.13.78.39,1.01.26.23.6.41,1.02.54.42.13.87.28,1.34.43.45.14.9.29,1.35.43.45.14.87.32,1.24.53.37.21.67.48.89.82.22.33.33.77.33,1.31,0,.49-.1.92-.29,1.3-.2.38-.47.71-.82.97-.35.27-.76.47-1.24.61-.48.14-1,.21-1.56.21Z"/>
    </g>
  </g>
</svg>